<svg xmlns="http://www.w3.org/2000/svg" viewBox="0 0 512 512" role="img" aria-label="ArtoisMailer">
  <defs>
    <linearGradient id="artois-logo-gradient" x1="0" y1="0" x2="1" y2="1">
      <stop offset="0%" stop-color="#17a870" />
      <stop offset="100%" stop-color="#0b5c3f" />
    </linearGradient>
  </defs>
  <g fill="url(#artois-logo-gradient)">
    <path d="M490.67 128H426.67V85.33C426.67 73.55 417.12 64 405.33 64H384V21.33C384 9.55 374.45 0 362.67 0H149.33c-11.78 0-21.33 9.55-21.33 21.33V64H106.67C94.88 64 85.33 73.55 85.33 85.33V128H21.33C9.55 128 0 137.55 0 149.33v341.34C0 502.45 9.55 512 21.33 512h469.34c11.78 0 21.33-9.55 21.33-21.33V149.33C512 137.55 502.45 128 490.67 128zM170.67 42.67h170.66V64H170.67V42.67zm-42.67 64h256v21.33H128V106.67zM469.33 469.33H42.67V194.35l199.82 163.5c7.86 6.43 19.16 6.43 27.02 0l199.82-163.5v274.98z" />
    <path d="M405.33 384h-64c-11.78 0-21.33 9.55-21.33 21.33 0 11.78 9.55 21.34 21.33 21.34h64c11.78 0 21.34-9.56 21.34-21.34 0-11.78-9.56-21.33-21.34-21.33z" />
  </g>
</svg>
